 <svg  version="1.0" xmlns="http://www.w3.org/2000/svg"  width="300.000000pt" height="170.000000pt" viewBox="0 0 300.000000 170.000000"  preserveAspectRatio="xMidYMid meet">  <g transform="translate(0.000000,170.000000) scale(0.100000,-0.100000)" fill="#12fdf9" stroke="none"> <path d="M1255 1423 c-27 -7 -45 -23 -45 -38 0 -10 8 -10 38 1 101 36 257 3 341 -72 64 -58 88 -91 111 -157 14 -36 19 -44 20 -27 0 35 -51 137 -93 186 -20 22 -64 56 -99 74 -57 31 -71 34 -158 36 -52 2 -104 0 -115 -3z"/> <path d="M840 1325 c-8 -2 -50 -9 -92 -16 -43 -6 -78 -15 -78 -18 0 -4 7 -17 16 -29 11 -16 24 -22 52 -21 36 1 36 2 7 8 -51 11 -43 36 15 49 87 20 198 15 250 -12 52 -26 90 -76 90 -119 0 -49 50 -245 66 -258 20 -16 19 -13 -23 161 -34 137 -42 159 -71 188 -18 18 -48 40 -67 48 -35 14 -136 26 -165 19z"/> <path d="M1273 1303 c-22 -4 -50 -30 -41 -39 3 -2 17 0 32 6 39 15 117 12 166 -5 66 -23 116 -69 149 -138 17 -34 31 -55 31 -47 0 33 -59 138 -96 169 -60 49 -155 71 -241 54z"/> <path d="M1012 1152 c-12 -39 -19 -47 -67 -68 l-53 -25 -46 -108 c-25 -60 -46 -118 -46 -129 0 -15 16 -26 64 -47 36 -15 71 -25 79 -22 15 5 107 216 107 244 0 10 -20 -31 -44 -90 -25 -59 -50 -115 -56 -123 -17 -20 -46 -18 -92 8 -36 21 -39 26 -35 54 3 18 25 72 49 120 32 67 48 89 63 90 11 0 28 4 38 9 15 6 25 1 43 -21 25 -29 25 -29 18 -4 -3 14 -10 31 -14 39 -4 8 -3 27 2 42 5 15 8 38 6 51 -2 18 -6 14 -16 -20z"/> <path d="M1262 1168 c-21 -21 -13 -27 19 -16 67 23 153 -16 189 -87 19 -36 20 -37 15 -10 -14 72 -82 125 -159 125 -29 0 -57 -5 -64 -12z"/> <path d="M1880 1073 c-192 -89 -341 -143 -447 -163 -55 -11 -60 -14 -47 -27 13 -14 22 -13 82 2 109 27 247 82 430 171 95 46 180 84 190 84 15 0 15 2 2 10 -8 5 -17 10 -20 9 -3 0 -88 -38 -190 -86z"/> <path d="M1905 1029 c-93 -50 -159 -87 -145 -84 33 9 115 50 218 109 46 26 89 45 96 43 28 -11 36 -271 11 -353 -18 -59 -17 -54 -5 -54 5 0 17 26 26 57 27 92 8 376 -24 372 -4 0 -83 -41 -177 -90z"/> <path d="M1292 1054 c-30 -21 -28 -38 2 -19 27 18 57 9 75 -23 9 -15 10 -15 11 5 0 21 -33 53 -55 53 -6 0 -21 -7 -33 -16z"/> <path d="M1973 1038 c-13 -6 -23 -17 -23 -25 0 -7 -6 -13 -12 -13 -7 0 -24 -9 -38 -20 l-25 -20 30 13 c17 7 49 23 72 35 23 12 46 22 50 22 5 0 7 -19 5 -43 -4 -41 -6 -45 -63 -76 -70 -39 -70 -62 1 -26 56 28 62 36 71 90 6 35 7 32 8 -25 0 -45 -2 -60 -9 -50 -7 11 -10 6 -10 -22 0 -32 -5 -39 -38 -58 -21 -12 -39 -28 -39 -35 0 -25 55 12 82 56 23 36 25 49 23 122 l-3 82 -30 2 c-16 1 -40 -3 -52 -9z"/> <path d="M1076 965 c14 -65 77 -285 81 -282 5 6 -66 277 -78 297 -6 10 -7 5 -3 -15z"/> <path d="M1862 921 c2 -19 9 -37 17 -39 11 -4 12 2 7 24 -11 45 -28 55 -24 15z"/> <path d="M1642 908 c-29 -12 -51 -22 -49 -24 6 -6 96 27 103 37 6 11 10 12 -54 -13z"/> <path d="M1310 831 l0 -79 42 2 c37 1 44 5 53 30 8 24 6 31 -14 47 -14 12 -31 17 -42 14 -16 -5 -19 -1 -19 29 0 20 -4 36 -10 36 -6 0 -10 -33 -10 -79z m64 -7 c20 -8 21 -38 2 -53 -19 -16 -46 -3 -46 23 0 34 12 42 44 30z"/> <path d="M1720 830 c0 -81 16 -112 22 -42 2 29 7 37 23 37 16 0 21 -8 23 -37 2 -21 6 -38 10 -38 12 0 1 84 -12 92 -6 4 -19 5 -28 2 -15 -4 -18 1 -18 30 0 20 -4 36 -10 36 -6 0 -10 -33 -10 -80z"/> <path d="M2052 825 c-3 -44 -21 -86 -23 -50 0 12 -5 6 -11 -15 -5 -19 -15 -39 -21 -43 -8 -6 -6 -7 5 -4 9 3 18 1 21 -6 8 -24 38 81 34 119 l-4 39 -1 -40z"/> <path d="M1431 836 c-15 -18 -7 -34 25 -46 25 -10 33 -30 11 -30 -7 0 -18 5 -25 12 -6 6 -15 9 -19 5 -12 -13 14 -29 43 -25 42 4 44 35 5 49 -38 13 -42 34 -5 25 19 -5 25 -3 22 6 -7 19 -43 21 -57 4z"/> <path d="M1525 830 c-15 -16 -17 -26 -9 -48 8 -23 15 -27 52 -28 l42 -2 0 45 c0 36 -3 44 -15 40 -8 -4 -17 -2 -20 3 -10 16 -31 11 -50 -10z m63 -26 c4 -25 -20 -47 -42 -38 -16 6 -22 45 -9 58 14 14 48 1 51 -20z"/> <path d="M1642 838 c-20 -20 -14 -35 20 -47 25 -9 29 -14 20 -23 -10 -10 -17 -10 -32 0 -11 7 -20 8 -20 2 0 -17 34 -29 53 -19 25 14 21 38 -8 51 -33 15 -32 32 2 23 23 -5 25 -4 14 9 -16 19 -33 20 -49 4z"/> <path d="M1848 838 c-24 -20 -28 -44 -12 -67 17 -23 53 -28 72 -9 19 19 15 66 -7 78 -25 13 -34 13 -53 -2z m50 -20 c16 -16 15 -23 -4 -42 -12 -12 -20 -13 -35 -6 -10 6 -19 16 -19 23 0 16 20 37 35 37 6 0 16 -5 23 -12z"/> <path d="M1210 795 c0 -25 5 -45 10 -45 6 0 10 20 10 45 0 25 -4 45 -10 45 -5 0 -10 -20 -10 -45z"/> <path d="M1260 795 c0 -25 5 -45 10 -45 6 0 10 20 10 45 0 25 -4 45 -10 45 -5 0 -10 -20 -10 -45z"/> <path d="M910 680 c0 -8 5 -22 10 -30 8 -12 10 -12 10 -1 0 11 3 11 15 1 9 -8 15 -8 15 -2 0 6 3 19 6 29 3 10 2 14 -3 8 -4 -5 -15 -10 -23 -10 -8 0 -18 5 -22 10 -5 6 -8 4 -8 -5z"/> <path d="M1012 673 c-14 -26 -17 -56 -3 -34 5 7 14 10 20 7 12 -8 13 0 2 29 -8 19 -8 19 -19 -2z"/> <path d="M1084 668 c0 -14 3 -24 5 -22 2 2 10 -1 16 -6 9 -7 12 -3 11 19 -1 21 -4 26 -13 20 -7 -7 -13 -5 -16 3 -2 7 -4 1 -3 -14z"/> <path d="M1218 683 c-22 -6 -24 -43 -2 -43 8 0 12 5 9 10 -4 6 -1 17 5 25 7 8 11 14 9 14 -2 -1 -12 -3 -21 -6z"/> <path d="M1350 676 c0 -9 5 -16 10 -16 6 0 10 -5 10 -11 0 -5 -4 -7 -10 -4 -5 3 -10 1 -10 -4 0 -17 27 -13 34 4 3 8 1 15 -4 15 -6 0 -9 5 -7 11 1 6 -4 14 -10 16 -7 3 -13 -2 -13 -11z"/> <path d="M1494 675 c-4 -11 -9 -24 -12 -29 -3 -5 1 -6 8 -1 7 4 16 2 21 -6 7 -11 9 -9 9 6 0 11 -4 27 -10 35 -7 12 -10 11 -16 -5z"/> <path d="M1700 660 c0 -20 5 -30 15 -30 8 0 15 5 15 11 0 5 -4 7 -10 4 -5 -3 -10 -1 -10 4 0 6 6 11 13 11 9 0 8 3 -2 9 -11 7 -11 9 0 14 10 4 9 6 -3 6 -13 1 -18 -7 -18 -29z"/> <path d="M1770 660 c0 -20 5 -30 15 -30 8 0 15 9 15 20 0 11 -6 20 -12 20 -9 0 -8 4 2 10 13 8 12 10 -2 10 -13 0 -18 -8 -18 -30z"/> <path d="M1959 686 c0 -1 -2 -11 -3 -23 -2 -15 3 -23 12 -23 8 0 12 6 9 14 -3 7 -1 18 4 23 6 6 4 10 -6 10 -8 0 -15 -1 -16 -1z"/> <path d="M2100 675 c0 -8 5 -15 10 -15 6 0 10 -5 10 -11 0 -5 -5 -7 -12 -3 -7 4 -8 3 -4 -5 11 -17 24 -5 24 24 0 15 -6 25 -14 25 -8 0 -14 -7 -14 -15z"/> <path d="M2240 666 c-6 -16 -8 -31 -5 -34 3 -3 5 0 5 7 0 8 7 11 15 7 17 -6 20 11 5 34 -7 11 -11 9 -20 -14z"/> <path d="M1276 664 c-10 -25 -7 -41 4 -24 9 13 11 13 20 0 6 -9 10 -10 10 -3 0 18 -11 43 -20 43 -4 0 -11 -7 -14 -16z"/> <path d="M2026 664 c-10 -25 -7 -41 4 -24 9 13 11 13 20 0 6 -9 10 -10 10 -3 0 18 -11 43 -20 43 -4 0 -11 -7 -14 -16z"/> <path d="M1563 628 c-18 -6 -33 -17 -33 -24 0 -9 8 -10 35 -1 19 6 35 16 35 24 0 7 -1 13 -2 12 -2 -1 -18 -6 -35 -11z"/> <path d="M1170 625 c0 -21 45 -116 62 -131 l22 -19 -21 28 c-12 16 -29 50 -38 78 -14 42 -25 61 -25 44z"/> <path d="M1967 595 c-21 -15 -56 -35 -80 -46 -23 -10 -31 -16 -17 -13 49 11 151 64 145 74 -8 13 -4 14 -48 -15z"/> <path d="M1350 588 c0 -12 3 -18 7 -15 3 4 14 0 23 -8 13 -12 24 -12 56 -4 21 6 43 15 48 20 19 17 -1 19 -50 4 -27 -8 -50 -15 -51 -15 -2 0 -3 9 -3 20 0 11 -7 20 -15 20 -9 0 -15 -9 -15 -22z"/> <path d="M1642 593 c5 -25 28 -28 28 -4 0 12 -6 21 -16 21 -9 0 -14 -7 -12 -17z"/> <path d="M1904 470 c-25 -10 -64 -57 -64 -76 0 -7 -16 -16 -37 -19 -63 -11 -268 -57 -272 -61 -14 -13 178 22 277 51 30 9 42 9 42 1 1 -6 7 3 14 20 38 86 157 86 186 0 21 -64 -26 -126 -93 -126 -33 0 -46 6 -74 36 -37 39 -53 39 -35 -1 25 -54 116 -82 170 -51 80 44 82 180 2 221 -32 16 -83 19 -116 5z"/> <path d="M1080 451 c0 -12 6 -21 16 -21 9 0 14 7 12 17 -5 25 -28 28 -28 4z"/> <path d="M853 444 c-3 -8 -3 -17 0 -20 10 -10 68 8 64 19 -6 18 -57 18 -64 1z"/> <path d="M1003 453 c-18 -7 -16 -40 3 -47 21 -8 34 1 34 24 0 19 -17 30 -37 23z"/> <path d="M1278 439 c-44 -23 -56 -41 -63 -100 l-5 -44 11 35 c7 20 14 29 17 21 3 -9 9 -3 18 17 15 37 67 72 107 72 57 0 98 -34 118 -99 l7 -26 2 25 c1 23 2 23 10 5 8 -18 9 -18 9 5 3 84 -138 139 -231 89z"/> <path d="M1932 388 c-24 -24 -8 -78 24 -78 17 0 44 28 44 45 0 17 -27 45 -44 45 -6 0 -17 -5 -24 -12z m46 -32 c6 -27 -11 -38 -33 -22 -11 8 -16 19 -12 30 9 22 41 17 45 -8z"/> <path d="M1318 344 c-21 -45 21 -87 66 -66 28 13 36 58 14 80 -22 22 -67 14 -80 -14z m76 -6 c23 -38 -35 -78 -61 -42 -17 23 -16 29 3 49 20 19 43 16 58 -7z"/> <path d="M942 338 c-18 -18 -15 -36 9 -48 24 -13 49 2 49 30 0 27 -37 39 -58 18z"/> <path d="M1098 329 c-23 -13 -23 -42 1 -63 24 -22 80 -18 95 7 9 15 6 23 -17 43 -30 26 -52 29 -79 13z m80 -35 c4 -29 -25 -39 -54 -19 -39 25 -28 48 21 43 22 -2 31 -9 33 -24z"/> <path d="M1730 329 c-136 -28 -223 -54 -247 -72 -15 -12 -23 -15 -18 -7 5 8 -5 4 -22 -10 -17 -14 -30 -33 -30 -42 1 -15 4 -15 28 -2 15 7 37 27 48 42 19 27 34 32 173 62 84 18 155 34 157 36 7 7 -42 2 -89 -7z"/> <path d="M1241 287 c-1 -10 -5 -15 -11 -12 -21 13 -9 -16 21 -50 30 -33 66 -52 39 -20 -7 8 -9 15 -6 15 4 0 -1 12 -12 28 -10 15 -22 34 -25 42 -4 12 -6 11 -6 -3z"/> <path d="M2201 219 c-41 -21 -79 -43 -84 -48 -6 -6 -21 -11 -33 -11 -13 0 -25 -4 -28 -9 -3 -4 -33 -16 -67 -25 -33 -10 -59 -20 -56 -22 8 -8 171 48 237 82 55 28 127 76 110 73 -3 -1 -38 -19 -79 -40z"/> <path d="M2115 223 c-49 -13 -116 -26 -147 -30 -36 -3 -55 -10 -51 -16 4 -6 0 -8 -11 -4 -10 4 -15 3 -11 -3 3 -6 -4 -10 -16 -10 -12 0 -19 -3 -16 -6 4 -4 35 -1 69 5 69 13 288 79 288 86 0 6 2 7 -105 -22z"/> <path d="M940 226 c0 -15 325 -95 338 -82 3 3 -2 6 -10 6 -9 0 -18 6 -21 13 -3 9 -31 16 -78 21 -69 6 -173 27 -211 41 -10 4 -18 5 -18 1z"/> <path d="M1542 163 c37 -2 100 -2 140 0 40 1 10 3 -67 3 -77 0 -110 -1 -73 -3z"/> <path d="M1517 123 c18 -2 50 -2 70 0 21 2 7 4 -32 4 -38 0 -55 -2 -38 -4z"/> <path d="M1375 70 c63 -8 311 -13 304 -6 -2 3 -85 7 -184 9 -113 4 -158 2 -120 -3z"/> </g> </svg> 